<mxfile host="Electron" agent="Mozilla/5.0 (Windows NT 10.0; Win64; x64) AppleWebKit/537.36 (KHTML, like Gecko) draw.io/24.7.8 Chrome/128.0.6613.36 Electron/32.0.1 Safari/537.36" version="24.7.8">
  <diagram id="C5RBs43oDa-KdzZeNtuy" name="Page-1">
    <mxGraphModel dx="2545" dy="572" grid="1" gridSize="10" guides="1" tooltips="1" connect="1" arrows="1" fold="1" page="1" pageScale="1" pageWidth="827" pageHeight="1169" math="0" shadow="0">
      <root>
        <mxCell id="WIyWlLk6GJQsqaUBKTNV-0" />
        <mxCell id="WIyWlLk6GJQsqaUBKTNV-1" parent="WIyWlLk6GJQsqaUBKTNV-0" />
        <mxCell id="QMsvHpXPwVjZWoKo-MYo-486" value="&lt;p style=&quot;margin:0px;margin-top:4px;text-align:center;&quot;&gt;&lt;b&gt;Frequent Flyer Card&lt;/b&gt;&lt;/p&gt;&lt;hr size=&quot;1&quot; style=&quot;border-style:solid;&quot;&gt;&lt;p style=&quot;margin:0px;margin-left:4px;&quot;&gt;+ FFC Number&lt;/p&gt;&lt;p style=&quot;margin:0px;margin-left:4px;&quot;&gt;+ Miles&amp;nbsp;&lt;/p&gt;&lt;p style=&quot;margin:0px;margin-left:4px;&quot;&gt;+ MealCode&lt;/p&gt;&lt;hr size=&quot;1&quot; style=&quot;border-style:solid;&quot;&gt;&lt;p style=&quot;margin:0px;margin-left:4px;&quot;&gt;&lt;br&gt;&lt;/p&gt;" style="verticalAlign=top;align=left;overflow=fill;html=1;whiteSpace=wrap;" parent="WIyWlLk6GJQsqaUBKTNV-1" vertex="1">
          <mxGeometry x="-720" y="80" width="160" height="80" as="geometry" />
        </mxCell>
        <mxCell id="QMsvHpXPwVjZWoKo-MYo-491" value="&lt;p style=&quot;margin:0px;margin-top:4px;text-align:center;&quot;&gt;&lt;b&gt;Customer&lt;/b&gt;&lt;/p&gt;&lt;hr size=&quot;1&quot; style=&quot;border-style:solid;&quot;&gt;&lt;p style=&quot;margin:0px;margin-left:4px;&quot;&gt;+ Date of Birth&lt;/p&gt;&lt;p style=&quot;margin:0px;margin-left:4px;&quot;&gt;+ Name&lt;/p&gt;&lt;p style=&quot;margin:0px;margin-left:4px;&quot;&gt;&lt;br&gt;&lt;/p&gt;&lt;p style=&quot;margin:0px;margin-left:4px;&quot;&gt;&lt;br&gt;&lt;/p&gt;&lt;p style=&quot;margin:0px;margin-left:4px;&quot;&gt;&lt;br&gt;&lt;/p&gt;&lt;hr size=&quot;1&quot; style=&quot;border-style:solid;&quot;&gt;&lt;p style=&quot;margin:0px;margin-left:4px;&quot;&gt;&lt;br&gt;&lt;/p&gt;" style="verticalAlign=top;align=left;overflow=fill;html=1;whiteSpace=wrap;" parent="WIyWlLk6GJQsqaUBKTNV-1" vertex="1">
          <mxGeometry x="-720" y="260" width="160" height="60" as="geometry" />
        </mxCell>
        <mxCell id="QMsvHpXPwVjZWoKo-MYo-493" style="edgeStyle=orthogonalEdgeStyle;rounded=0;orthogonalLoop=1;jettySize=auto;html=1;exitX=0.5;exitY=1;exitDx=0;exitDy=0;" parent="WIyWlLk6GJQsqaUBKTNV-1" source="QMsvHpXPwVjZWoKo-MYo-491" target="QMsvHpXPwVjZWoKo-MYo-491" edge="1">
          <mxGeometry relative="1" as="geometry" />
        </mxCell>
        <mxCell id="QMsvHpXPwVjZWoKo-MYo-494" value="&lt;p style=&quot;margin:0px;margin-top:4px;text-align:center;&quot;&gt;&lt;b&gt;Ticket&lt;/b&gt;&lt;/p&gt;&lt;hr size=&quot;1&quot; style=&quot;border-style:solid;&quot;&gt;&lt;p style=&quot;margin:0px;margin-left:4px;&quot;&gt;+ Ticketing Code&lt;/p&gt;&lt;p style=&quot;margin:0px;margin-left:4px;&quot;&gt;+ Number&lt;/p&gt;&lt;hr size=&quot;1&quot; style=&quot;border-style:solid;&quot;&gt;&lt;p style=&quot;margin:0px;margin-left:4px;&quot;&gt;&lt;br&gt;&lt;/p&gt;" style="verticalAlign=top;align=left;overflow=fill;html=1;whiteSpace=wrap;" parent="WIyWlLk6GJQsqaUBKTNV-1" vertex="1">
          <mxGeometry x="-720" y="420" width="160" height="60" as="geometry" />
        </mxCell>
        <mxCell id="QMsvHpXPwVjZWoKo-MYo-495" value="&lt;p style=&quot;margin:0px;margin-top:4px;text-align:center;&quot;&gt;&lt;b&gt;Coupon&lt;/b&gt;&lt;/p&gt;&lt;hr size=&quot;1&quot; style=&quot;border-style:solid;&quot;&gt;&lt;p style=&quot;margin:0px;margin-left:4px;&quot;&gt;+ Date of Redemption&lt;/p&gt;&lt;p style=&quot;margin:0px;margin-left:4px;&quot;&gt;+ Class&lt;/p&gt;&lt;p style=&quot;margin:0px;margin-left:4px;&quot;&gt;+ Standby&lt;/p&gt;&lt;p style=&quot;margin:0px;margin-left:4px;&quot;&gt;+ Meal Code&lt;/p&gt;&lt;hr size=&quot;1&quot; style=&quot;border-style:solid;&quot;&gt;&lt;p style=&quot;margin:0px;margin-left:4px;&quot;&gt;&lt;br&gt;&lt;/p&gt;" style="verticalAlign=top;align=left;overflow=fill;html=1;whiteSpace=wrap;" parent="WIyWlLk6GJQsqaUBKTNV-1" vertex="1">
          <mxGeometry x="-720" y="590" width="160" height="90" as="geometry" />
        </mxCell>
        <mxCell id="QMsvHpXPwVjZWoKo-MYo-496" value="&lt;p style=&quot;margin:0px;margin-top:4px;text-align:center;&quot;&gt;&lt;b&gt;Pieces of Luggage&lt;/b&gt;&lt;/p&gt;&lt;hr size=&quot;1&quot; style=&quot;border-style:solid;&quot;&gt;&lt;p style=&quot;margin:0px;margin-left:4px;&quot;&gt;+ Number&lt;/p&gt;&lt;p style=&quot;margin:0px;margin-left:4px;&quot;&gt;+ Weight&lt;/p&gt;&lt;hr size=&quot;1&quot; style=&quot;border-style:solid;&quot;&gt;&lt;p style=&quot;margin:0px;margin-left:4px;&quot;&gt;&lt;br&gt;&lt;/p&gt;" style="verticalAlign=top;align=left;overflow=fill;html=1;whiteSpace=wrap;" parent="WIyWlLk6GJQsqaUBKTNV-1" vertex="1">
          <mxGeometry x="-720" y="760" width="160" height="60" as="geometry" />
        </mxCell>
        <mxCell id="QMsvHpXPwVjZWoKo-MYo-507" value="" style="endArrow=diamondThin;endFill=0;endSize=24;html=1;rounded=0;entryX=0.5;entryY=1;entryDx=0;entryDy=0;exitX=0.5;exitY=0;exitDx=0;exitDy=0;" parent="WIyWlLk6GJQsqaUBKTNV-1" source="QMsvHpXPwVjZWoKo-MYo-495" target="QMsvHpXPwVjZWoKo-MYo-494" edge="1">
          <mxGeometry width="160" relative="1" as="geometry">
            <mxPoint x="-640" y="560" as="sourcePoint" />
            <mxPoint x="-480" y="560" as="targetPoint" />
          </mxGeometry>
        </mxCell>
        <mxCell id="QMsvHpXPwVjZWoKo-MYo-508" value="1" style="text;html=1;align=center;verticalAlign=middle;resizable=0;points=[];autosize=1;strokeColor=none;fillColor=none;" parent="WIyWlLk6GJQsqaUBKTNV-1" vertex="1">
          <mxGeometry x="-670" y="500" width="30" height="30" as="geometry" />
        </mxCell>
        <mxCell id="QMsvHpXPwVjZWoKo-MYo-509" value="1..4" style="text;html=1;align=center;verticalAlign=middle;resizable=0;points=[];autosize=1;strokeColor=none;fillColor=none;" parent="WIyWlLk6GJQsqaUBKTNV-1" vertex="1">
          <mxGeometry x="-675" y="560" width="40" height="30" as="geometry" />
        </mxCell>
        <mxCell id="QMsvHpXPwVjZWoKo-MYo-513" value="" style="endArrow=none;html=1;edgeStyle=orthogonalEdgeStyle;rounded=0;entryX=0.5;entryY=0;entryDx=0;entryDy=0;exitX=0.5;exitY=1;exitDx=0;exitDy=0;" parent="WIyWlLk6GJQsqaUBKTNV-1" source="QMsvHpXPwVjZWoKo-MYo-495" target="QMsvHpXPwVjZWoKo-MYo-496" edge="1">
          <mxGeometry relative="1" as="geometry">
            <mxPoint x="-650" y="710" as="sourcePoint" />
            <mxPoint x="-490" y="710" as="targetPoint" />
          </mxGeometry>
        </mxCell>
        <mxCell id="QMsvHpXPwVjZWoKo-MYo-516" value="" style="endArrow=none;html=1;edgeStyle=orthogonalEdgeStyle;rounded=0;exitX=0.5;exitY=0;exitDx=0;exitDy=0;entryX=0.5;entryY=1;entryDx=0;entryDy=0;" parent="WIyWlLk6GJQsqaUBKTNV-1" source="QMsvHpXPwVjZWoKo-MYo-494" target="QMsvHpXPwVjZWoKo-MYo-491" edge="1">
          <mxGeometry relative="1" as="geometry">
            <mxPoint x="-635" y="390" as="sourcePoint" />
            <mxPoint x="-475" y="390" as="targetPoint" />
          </mxGeometry>
        </mxCell>
        <mxCell id="QMsvHpXPwVjZWoKo-MYo-518" value="1" style="edgeLabel;resizable=0;html=1;align=right;verticalAlign=bottom;" parent="QMsvHpXPwVjZWoKo-MYo-516" connectable="0" vertex="1">
          <mxGeometry x="1" relative="1" as="geometry">
            <mxPoint x="-10" y="20" as="offset" />
          </mxGeometry>
        </mxCell>
        <mxCell id="QMsvHpXPwVjZWoKo-MYo-519" value="*" style="text;html=1;align=center;verticalAlign=middle;resizable=0;points=[];autosize=1;strokeColor=none;fillColor=none;" parent="WIyWlLk6GJQsqaUBKTNV-1" vertex="1">
          <mxGeometry x="-670" y="380" width="30" height="30" as="geometry" />
        </mxCell>
        <mxCell id="QMsvHpXPwVjZWoKo-MYo-520" value="" style="endArrow=none;html=1;edgeStyle=orthogonalEdgeStyle;rounded=0;exitX=0.5;exitY=0;exitDx=0;exitDy=0;entryX=0.5;entryY=1;entryDx=0;entryDy=0;" parent="WIyWlLk6GJQsqaUBKTNV-1" source="QMsvHpXPwVjZWoKo-MYo-491" target="QMsvHpXPwVjZWoKo-MYo-486" edge="1">
          <mxGeometry relative="1" as="geometry">
            <mxPoint x="-600" y="250" as="sourcePoint" />
            <mxPoint x="-440" y="250" as="targetPoint" />
          </mxGeometry>
        </mxCell>
        <mxCell id="QMsvHpXPwVjZWoKo-MYo-521" value="1" style="edgeLabel;resizable=0;html=1;align=left;verticalAlign=bottom;" parent="QMsvHpXPwVjZWoKo-MYo-520" connectable="0" vertex="1">
          <mxGeometry x="-1" relative="1" as="geometry">
            <mxPoint x="-20" as="offset" />
          </mxGeometry>
        </mxCell>
        <mxCell id="QMsvHpXPwVjZWoKo-MYo-522" value="0..1" style="edgeLabel;resizable=0;html=1;align=right;verticalAlign=bottom;" parent="QMsvHpXPwVjZWoKo-MYo-520" connectable="0" vertex="1">
          <mxGeometry x="1" relative="1" as="geometry">
            <mxPoint x="-10" y="20" as="offset" />
          </mxGeometry>
        </mxCell>
        <mxCell id="QMsvHpXPwVjZWoKo-MYo-523" value="1" style="text;html=1;align=center;verticalAlign=middle;resizable=0;points=[];autosize=1;strokeColor=none;fillColor=none;" parent="WIyWlLk6GJQsqaUBKTNV-1" vertex="1">
          <mxGeometry x="-665" y="680" width="30" height="30" as="geometry" />
        </mxCell>
        <mxCell id="QMsvHpXPwVjZWoKo-MYo-524" value="*" style="text;html=1;align=center;verticalAlign=middle;resizable=0;points=[];autosize=1;strokeColor=none;fillColor=none;" parent="WIyWlLk6GJQsqaUBKTNV-1" vertex="1">
          <mxGeometry x="-665" y="740" width="30" height="30" as="geometry" />
        </mxCell>
        <mxCell id="QMsvHpXPwVjZWoKo-MYo-525" value="&lt;p style=&quot;margin:0px;margin-top:4px;text-align:center;&quot;&gt;&lt;b&gt;Airport&lt;/b&gt;&lt;/p&gt;&lt;hr size=&quot;1&quot; style=&quot;border-style:solid;&quot;&gt;&lt;p style=&quot;margin:0px;margin-left:4px;&quot;&gt;+ Name&lt;/p&gt;&lt;hr size=&quot;1&quot; style=&quot;border-style:solid;&quot;&gt;&lt;p style=&quot;margin:0px;margin-left:4px;&quot;&gt;&lt;br&gt;&lt;/p&gt;" style="verticalAlign=top;align=left;overflow=fill;html=1;whiteSpace=wrap;" parent="WIyWlLk6GJQsqaUBKTNV-1" vertex="1">
          <mxGeometry x="-413" y="140" width="160" height="50" as="geometry" />
        </mxCell>
        <mxCell id="QMsvHpXPwVjZWoKo-MYo-526" value="&lt;p style=&quot;margin:0px;margin-top:4px;text-align:center;&quot;&gt;&lt;b&gt;Flight Number&lt;/b&gt;&lt;/p&gt;&lt;hr size=&quot;1&quot; style=&quot;border-style:solid;&quot;&gt;&lt;p style=&quot;margin:0px;margin-left:4px;&quot;&gt;+ Departure Time&lt;/p&gt;&lt;p style=&quot;margin:0px;margin-left:4px;&quot;&gt;+ Description&lt;/p&gt;&lt;p style=&quot;margin:0px;margin-left:4px;&quot;&gt;+ Type&amp;nbsp;&lt;/p&gt;&lt;p style=&quot;margin:0px;margin-left:4px;&quot;&gt;+ Airline&lt;/p&gt;&lt;hr size=&quot;1&quot; style=&quot;border-style:solid;&quot;&gt;&lt;p style=&quot;margin:0px;margin-left:4px;&quot;&gt;&lt;br&gt;&lt;/p&gt;" style="verticalAlign=top;align=left;overflow=fill;html=1;whiteSpace=wrap;" parent="WIyWlLk6GJQsqaUBKTNV-1" vertex="1">
          <mxGeometry x="-413" y="290" width="160" height="90" as="geometry" />
        </mxCell>
        <mxCell id="QMsvHpXPwVjZWoKo-MYo-527" value="&lt;p style=&quot;margin:0px;margin-top:4px;text-align:center;&quot;&gt;&lt;b&gt;Flight&lt;/b&gt;&lt;/p&gt;&lt;hr size=&quot;1&quot; style=&quot;border-style:solid;&quot;&gt;&lt;p style=&quot;margin:0px;margin-left:4px;&quot;&gt;+ Boarding Time&lt;/p&gt;&lt;p style=&quot;margin:0px;margin-left:4px;&quot;&gt;+ Flight Date&lt;/p&gt;&lt;p style=&quot;margin:0px;margin-left:4px;&quot;&gt;+ Gate&amp;nbsp;&lt;/p&gt;&lt;p style=&quot;margin:0px;margin-left:4px;&quot;&gt;+ Check-in Counter&lt;/p&gt;&lt;hr size=&quot;1&quot; style=&quot;border-style:solid;&quot;&gt;&lt;p style=&quot;margin:0px;margin-left:4px;&quot;&gt;&lt;br&gt;&lt;/p&gt;" style="verticalAlign=top;align=left;overflow=fill;html=1;whiteSpace=wrap;" parent="WIyWlLk6GJQsqaUBKTNV-1" vertex="1">
          <mxGeometry x="-413" y="480" width="160" height="90" as="geometry" />
        </mxCell>
        <mxCell id="QMsvHpXPwVjZWoKo-MYo-532" value="&lt;p style=&quot;margin:0px;margin-top:4px;text-align:center;&quot;&gt;&lt;b&gt;Available Seat&lt;/b&gt;&lt;/p&gt;&lt;hr size=&quot;1&quot; style=&quot;border-style:solid;&quot;&gt;&lt;p style=&quot;margin:0px;margin-left:4px;&quot;&gt;+ field: Type&lt;/p&gt;&lt;hr size=&quot;1&quot; style=&quot;border-style:solid;&quot;&gt;&lt;p style=&quot;margin:0px;margin-left:4px;&quot;&gt;+ method(): Type&lt;/p&gt;" style="verticalAlign=top;align=left;overflow=fill;html=1;whiteSpace=wrap;" parent="WIyWlLk6GJQsqaUBKTNV-1" vertex="1">
          <mxGeometry x="-413" y="710" width="160" height="90" as="geometry" />
        </mxCell>
        <mxCell id="QMsvHpXPwVjZWoKo-MYo-533" value="" style="endArrow=none;html=1;edgeStyle=orthogonalEdgeStyle;rounded=0;entryX=0.5;entryY=0;entryDx=0;entryDy=0;exitX=0.5;exitY=1;exitDx=0;exitDy=0;" parent="WIyWlLk6GJQsqaUBKTNV-1" source="QMsvHpXPwVjZWoKo-MYo-525" target="QMsvHpXPwVjZWoKo-MYo-526" edge="1">
          <mxGeometry relative="1" as="geometry">
            <mxPoint x="-533" y="310" as="sourcePoint" />
            <mxPoint x="-373" y="310" as="targetPoint" />
            <Array as="points">
              <mxPoint x="-373" y="190" />
              <mxPoint x="-373" y="290" />
            </Array>
          </mxGeometry>
        </mxCell>
        <mxCell id="QMsvHpXPwVjZWoKo-MYo-536" value="" style="endArrow=none;html=1;edgeStyle=orthogonalEdgeStyle;rounded=0;entryX=0.5;entryY=0;entryDx=0;entryDy=0;exitX=0.5;exitY=1;exitDx=0;exitDy=0;" parent="WIyWlLk6GJQsqaUBKTNV-1" edge="1">
          <mxGeometry relative="1" as="geometry">
            <mxPoint x="-253" y="190" as="sourcePoint" />
            <mxPoint x="-253" y="290" as="targetPoint" />
            <Array as="points">
              <mxPoint x="-293" y="190" />
              <mxPoint x="-293" y="290" />
            </Array>
          </mxGeometry>
        </mxCell>
        <mxCell id="QMsvHpXPwVjZWoKo-MYo-537" value="" style="endArrow=none;html=1;edgeStyle=orthogonalEdgeStyle;rounded=0;exitX=0.5;exitY=1;exitDx=0;exitDy=0;entryX=0.5;entryY=0;entryDx=0;entryDy=0;" parent="WIyWlLk6GJQsqaUBKTNV-1" source="QMsvHpXPwVjZWoKo-MYo-526" target="QMsvHpXPwVjZWoKo-MYo-527" edge="1">
          <mxGeometry relative="1" as="geometry">
            <mxPoint x="-533" y="500" as="sourcePoint" />
            <mxPoint x="-373" y="500" as="targetPoint" />
          </mxGeometry>
        </mxCell>
        <mxCell id="QMsvHpXPwVjZWoKo-MYo-541" value="" style="endArrow=none;html=1;edgeStyle=orthogonalEdgeStyle;rounded=0;exitX=1.011;exitY=0.374;exitDx=0;exitDy=0;exitPerimeter=0;entryX=0.146;entryY=1.036;entryDx=0;entryDy=0;entryPerimeter=0;" parent="WIyWlLk6GJQsqaUBKTNV-1" source="QMsvHpXPwVjZWoKo-MYo-495" target="QMsvHpXPwVjZWoKo-MYo-527" edge="1">
          <mxGeometry relative="1" as="geometry">
            <mxPoint x="-400" y="550" as="sourcePoint" />
            <mxPoint x="-240" y="550" as="targetPoint" />
          </mxGeometry>
        </mxCell>
        <mxCell id="QMsvHpXPwVjZWoKo-MYo-547" value="" style="endArrow=none;html=1;edgeStyle=orthogonalEdgeStyle;rounded=0;exitX=1;exitY=0.75;exitDx=0;exitDy=0;entryX=0.163;entryY=-0.017;entryDx=0;entryDy=0;entryPerimeter=0;" parent="WIyWlLk6GJQsqaUBKTNV-1" source="QMsvHpXPwVjZWoKo-MYo-495" target="QMsvHpXPwVjZWoKo-MYo-532" edge="1">
          <mxGeometry relative="1" as="geometry">
            <mxPoint x="-400" y="550" as="sourcePoint" />
            <mxPoint x="-240" y="550" as="targetPoint" />
          </mxGeometry>
        </mxCell>
        <mxCell id="QMsvHpXPwVjZWoKo-MYo-550" value="" style="endArrow=none;html=1;edgeStyle=orthogonalEdgeStyle;rounded=0;exitX=0.5;exitY=1;exitDx=0;exitDy=0;entryX=0.5;entryY=0;entryDx=0;entryDy=0;" parent="WIyWlLk6GJQsqaUBKTNV-1" source="QMsvHpXPwVjZWoKo-MYo-527" target="QMsvHpXPwVjZWoKo-MYo-532" edge="1">
          <mxGeometry relative="1" as="geometry">
            <mxPoint x="-400" y="550" as="sourcePoint" />
            <mxPoint x="-240" y="550" as="targetPoint" />
          </mxGeometry>
        </mxCell>
        <mxCell id="QMsvHpXPwVjZWoKo-MYo-553" value="1" style="text;html=1;align=center;verticalAlign=middle;resizable=0;points=[];autosize=1;strokeColor=none;fillColor=none;" parent="WIyWlLk6GJQsqaUBKTNV-1" vertex="1">
          <mxGeometry x="-403" y="190" width="30" height="30" as="geometry" />
        </mxCell>
        <mxCell id="QMsvHpXPwVjZWoKo-MYo-554" value="1..*" style="text;html=1;align=center;verticalAlign=middle;resizable=0;points=[];autosize=1;strokeColor=none;fillColor=none;" parent="WIyWlLk6GJQsqaUBKTNV-1" vertex="1">
          <mxGeometry x="-408" y="260" width="40" height="30" as="geometry" />
        </mxCell>
        <mxCell id="QMsvHpXPwVjZWoKo-MYo-555" value="1" style="text;html=1;align=center;verticalAlign=middle;resizable=0;points=[];autosize=1;strokeColor=none;fillColor=none;" parent="WIyWlLk6GJQsqaUBKTNV-1" vertex="1">
          <mxGeometry x="-325" y="188" width="30" height="30" as="geometry" />
        </mxCell>
        <mxCell id="QMsvHpXPwVjZWoKo-MYo-556" value="1..*" style="text;html=1;align=center;verticalAlign=middle;resizable=0;points=[];autosize=1;strokeColor=none;fillColor=none;" parent="WIyWlLk6GJQsqaUBKTNV-1" vertex="1">
          <mxGeometry x="-330" y="258" width="40" height="30" as="geometry" />
        </mxCell>
        <mxCell id="QMsvHpXPwVjZWoKo-MYo-557" value="1" style="text;html=1;align=center;verticalAlign=middle;resizable=0;points=[];autosize=1;strokeColor=none;fillColor=none;" parent="WIyWlLk6GJQsqaUBKTNV-1" vertex="1">
          <mxGeometry x="-365" y="378" width="30" height="30" as="geometry" />
        </mxCell>
        <mxCell id="QMsvHpXPwVjZWoKo-MYo-558" value="*" style="text;html=1;align=center;verticalAlign=middle;resizable=0;points=[];autosize=1;strokeColor=none;fillColor=none;" parent="WIyWlLk6GJQsqaUBKTNV-1" vertex="1">
          <mxGeometry x="-365" y="448" width="30" height="30" as="geometry" />
        </mxCell>
        <mxCell id="QMsvHpXPwVjZWoKo-MYo-559" value="1" style="text;html=1;align=center;verticalAlign=middle;resizable=0;points=[];autosize=1;strokeColor=none;fillColor=none;" parent="WIyWlLk6GJQsqaUBKTNV-1" vertex="1">
          <mxGeometry x="-420" y="570" width="30" height="30" as="geometry" />
        </mxCell>
        <mxCell id="QMsvHpXPwVjZWoKo-MYo-560" value="*" style="text;html=1;align=center;verticalAlign=middle;resizable=0;points=[];autosize=1;strokeColor=none;fillColor=none;" parent="WIyWlLk6GJQsqaUBKTNV-1" vertex="1">
          <mxGeometry x="-560" y="600" width="30" height="30" as="geometry" />
        </mxCell>
        <mxCell id="QMsvHpXPwVjZWoKo-MYo-562" value="0..1" style="text;html=1;align=center;verticalAlign=middle;resizable=0;points=[];autosize=1;strokeColor=none;fillColor=none;" parent="WIyWlLk6GJQsqaUBKTNV-1" vertex="1">
          <mxGeometry x="-565" y="658" width="40" height="30" as="geometry" />
        </mxCell>
        <mxCell id="QMsvHpXPwVjZWoKo-MYo-563" value="0..1" style="text;html=1;align=center;verticalAlign=middle;resizable=0;points=[];autosize=1;strokeColor=none;fillColor=none;" parent="WIyWlLk6GJQsqaUBKTNV-1" vertex="1">
          <mxGeometry x="-425" y="680" width="40" height="30" as="geometry" />
        </mxCell>
        <mxCell id="QMsvHpXPwVjZWoKo-MYo-564" value="1" style="text;html=1;align=center;verticalAlign=middle;resizable=0;points=[];autosize=1;strokeColor=none;fillColor=none;" parent="WIyWlLk6GJQsqaUBKTNV-1" vertex="1">
          <mxGeometry x="-365" y="568" width="30" height="30" as="geometry" />
        </mxCell>
        <mxCell id="QMsvHpXPwVjZWoKo-MYo-565" value="*" style="text;html=1;align=center;verticalAlign=middle;resizable=0;points=[];autosize=1;strokeColor=none;fillColor=none;" parent="WIyWlLk6GJQsqaUBKTNV-1" vertex="1">
          <mxGeometry x="-365" y="678" width="30" height="30" as="geometry" />
        </mxCell>
        <mxCell id="QMsvHpXPwVjZWoKo-MYo-566" value="&lt;p style=&quot;margin:0px;margin-top:4px;text-align:center;&quot;&gt;&lt;b&gt;Airplane&lt;/b&gt;&lt;/p&gt;&lt;hr size=&quot;1&quot; style=&quot;border-style:solid;&quot;&gt;&lt;p style=&quot;margin:0px;margin-left:4px;&quot;&gt;+ Registration Number&lt;/p&gt;&lt;p style=&quot;margin:0px;margin-left:4px;&quot;&gt;+ Begin of Operation&amp;nbsp;&lt;/p&gt;&lt;p style=&quot;margin:0px;margin-left:4px;&quot;&gt;+ Status&lt;/p&gt;&lt;hr size=&quot;1&quot; style=&quot;border-style:solid;&quot;&gt;&lt;p style=&quot;margin:0px;margin-left:4px;&quot;&gt;&lt;br&gt;&lt;/p&gt;" style="verticalAlign=top;align=left;overflow=fill;html=1;whiteSpace=wrap;" parent="WIyWlLk6GJQsqaUBKTNV-1" vertex="1">
          <mxGeometry x="-150" y="218" width="160" height="80" as="geometry" />
        </mxCell>
        <mxCell id="QMsvHpXPwVjZWoKo-MYo-567" value="&lt;p style=&quot;margin:0px;margin-top:4px;text-align:center;&quot;&gt;&lt;b&gt;Plane Model&lt;/b&gt;&lt;/p&gt;&lt;hr size=&quot;1&quot; style=&quot;border-style:solid;&quot;&gt;&lt;p style=&quot;margin:0px;margin-left:4px;&quot;&gt;+ Description&lt;/p&gt;&lt;p style=&quot;margin:0px;margin-left:4px;&quot;&gt;+ Graphic&lt;/p&gt;&lt;hr size=&quot;1&quot; style=&quot;border-style:solid;&quot;&gt;&lt;p style=&quot;margin:0px;margin-left:4px;&quot;&gt;&lt;br&gt;&lt;/p&gt;" style="verticalAlign=top;align=left;overflow=fill;html=1;whiteSpace=wrap;" parent="WIyWlLk6GJQsqaUBKTNV-1" vertex="1">
          <mxGeometry x="-150" y="362.75" width="160" height="65" as="geometry" />
        </mxCell>
        <mxCell id="QMsvHpXPwVjZWoKo-MYo-568" value="&lt;p style=&quot;margin:0px;margin-top:4px;text-align:center;&quot;&gt;&lt;b&gt;Seat&lt;/b&gt;&lt;/p&gt;&lt;hr size=&quot;1&quot; style=&quot;border-style:solid;&quot;&gt;&lt;p style=&quot;margin:0px;margin-left:4px;&quot;&gt;+ Size&lt;/p&gt;&lt;p style=&quot;margin:0px;margin-left:4px;&quot;&gt;+ Number&amp;nbsp;&lt;/p&gt;&lt;p style=&quot;margin:0px;margin-left:4px;&quot;&gt;+ Location&lt;/p&gt;&lt;hr size=&quot;1&quot; style=&quot;border-style:solid;&quot;&gt;&lt;p style=&quot;margin:0px;margin-left:4px;&quot;&gt;&lt;br&gt;&lt;/p&gt;" style="verticalAlign=top;align=left;overflow=fill;html=1;whiteSpace=wrap;" parent="WIyWlLk6GJQsqaUBKTNV-1" vertex="1">
          <mxGeometry x="-150" y="549" width="160" height="78" as="geometry" />
        </mxCell>
        <mxCell id="QMsvHpXPwVjZWoKo-MYo-571" value="" style="endArrow=none;html=1;edgeStyle=orthogonalEdgeStyle;rounded=0;exitX=0.5;exitY=0;exitDx=0;exitDy=0;entryX=0.5;entryY=1;entryDx=0;entryDy=0;" parent="WIyWlLk6GJQsqaUBKTNV-1" source="QMsvHpXPwVjZWoKo-MYo-567" target="QMsvHpXPwVjZWoKo-MYo-566" edge="1">
          <mxGeometry relative="1" as="geometry">
            <mxPoint x="-211" y="408" as="sourcePoint" />
            <mxPoint x="-51" y="408" as="targetPoint" />
          </mxGeometry>
        </mxCell>
        <mxCell id="QMsvHpXPwVjZWoKo-MYo-574" value="" style="endArrow=diamondThin;endFill=0;endSize=24;html=1;rounded=0;entryX=0.5;entryY=1;entryDx=0;entryDy=0;exitX=0.5;exitY=0;exitDx=0;exitDy=0;" parent="WIyWlLk6GJQsqaUBKTNV-1" source="QMsvHpXPwVjZWoKo-MYo-568" target="QMsvHpXPwVjZWoKo-MYo-567" edge="1">
          <mxGeometry width="160" relative="1" as="geometry">
            <mxPoint x="-184" y="530" as="sourcePoint" />
            <mxPoint x="-24" y="530" as="targetPoint" />
          </mxGeometry>
        </mxCell>
        <mxCell id="QMsvHpXPwVjZWoKo-MYo-575" value="" style="endArrow=none;html=1;edgeStyle=orthogonalEdgeStyle;rounded=0;exitX=1;exitY=0.5;exitDx=0;exitDy=0;entryX=0.202;entryY=0.994;entryDx=0;entryDy=0;entryPerimeter=0;" parent="WIyWlLk6GJQsqaUBKTNV-1" source="QMsvHpXPwVjZWoKo-MYo-532" target="QMsvHpXPwVjZWoKo-MYo-568" edge="1">
          <mxGeometry relative="1" as="geometry">
            <mxPoint x="-184" y="734" as="sourcePoint" />
            <mxPoint x="-24" y="734" as="targetPoint" />
          </mxGeometry>
        </mxCell>
        <mxCell id="QMsvHpXPwVjZWoKo-MYo-578" value="" style="endArrow=none;html=1;edgeStyle=orthogonalEdgeStyle;rounded=0;exitX=1;exitY=0.5;exitDx=0;exitDy=0;entryX=0.007;entryY=0.594;entryDx=0;entryDy=0;entryPerimeter=0;" parent="WIyWlLk6GJQsqaUBKTNV-1" source="QMsvHpXPwVjZWoKo-MYo-526" target="QMsvHpXPwVjZWoKo-MYo-567" edge="1">
          <mxGeometry relative="1" as="geometry">
            <mxPoint x="-184" y="530" as="sourcePoint" />
            <mxPoint x="-24" y="530" as="targetPoint" />
          </mxGeometry>
        </mxCell>
        <mxCell id="QMsvHpXPwVjZWoKo-MYo-581" value="*..0" style="text;html=1;align=center;verticalAlign=middle;resizable=0;points=[];autosize=1;strokeColor=none;fillColor=none;" parent="WIyWlLk6GJQsqaUBKTNV-1" vertex="1">
          <mxGeometry x="-255" y="309" width="36" height="26" as="geometry" />
        </mxCell>
        <mxCell id="QMsvHpXPwVjZWoKo-MYo-582" value="1" style="text;html=1;align=center;verticalAlign=middle;resizable=0;points=[];autosize=1;strokeColor=none;fillColor=none;" parent="WIyWlLk6GJQsqaUBKTNV-1" vertex="1">
          <mxGeometry x="-176" y="373" width="25" height="26" as="geometry" />
        </mxCell>
        <mxCell id="QMsvHpXPwVjZWoKo-MYo-583" value="*" style="text;html=1;align=center;verticalAlign=middle;resizable=0;points=[];autosize=1;strokeColor=none;fillColor=none;" parent="WIyWlLk6GJQsqaUBKTNV-1" vertex="1">
          <mxGeometry x="-95" y="298" width="23" height="26" as="geometry" />
        </mxCell>
        <mxCell id="QMsvHpXPwVjZWoKo-MYo-585" value="1" style="text;html=1;align=center;verticalAlign=middle;resizable=0;points=[];autosize=1;strokeColor=none;fillColor=none;" parent="WIyWlLk6GJQsqaUBKTNV-1" vertex="1">
          <mxGeometry x="-97" y="335" width="25" height="26" as="geometry" />
        </mxCell>
        <mxCell id="QMsvHpXPwVjZWoKo-MYo-586" value="1" style="text;html=1;align=center;verticalAlign=middle;resizable=0;points=[];autosize=1;strokeColor=none;fillColor=none;" parent="WIyWlLk6GJQsqaUBKTNV-1" vertex="1">
          <mxGeometry x="-102" y="454" width="25" height="26" as="geometry" />
        </mxCell>
        <mxCell id="QMsvHpXPwVjZWoKo-MYo-587" value="*" style="text;html=1;align=center;verticalAlign=middle;resizable=0;points=[];autosize=1;strokeColor=none;fillColor=none;" parent="WIyWlLk6GJQsqaUBKTNV-1" vertex="1">
          <mxGeometry x="-99" y="518" width="23" height="26" as="geometry" />
        </mxCell>
        <mxCell id="QMsvHpXPwVjZWoKo-MYo-588" value="1" style="text;html=1;align=center;verticalAlign=middle;resizable=0;points=[];autosize=1;strokeColor=none;fillColor=none;" parent="WIyWlLk6GJQsqaUBKTNV-1" vertex="1">
          <mxGeometry x="-147" y="632" width="25" height="26" as="geometry" />
        </mxCell>
        <mxCell id="QMsvHpXPwVjZWoKo-MYo-589" value="*" style="text;html=1;align=center;verticalAlign=middle;resizable=0;points=[];autosize=1;strokeColor=none;fillColor=none;" parent="WIyWlLk6GJQsqaUBKTNV-1" vertex="1">
          <mxGeometry x="-248" y="727" width="23" height="26" as="geometry" />
        </mxCell>
        <mxCell id="bgWBPSLHwiRNU1j04OMt-0" value="&lt;p style=&quot;margin:0px;margin-top:4px;text-align:center;&quot;&gt;&lt;b&gt;Boarding Pass&lt;/b&gt;&lt;/p&gt;&lt;hr size=&quot;1&quot; style=&quot;border-style:solid;&quot;&gt;&lt;p style=&quot;margin:0px;margin-left:4px;&quot;&gt;+ Id&amp;nbsp;&lt;/p&gt;&lt;p style=&quot;margin:0px;margin-left:4px;&quot;&gt;+ Gate&lt;/p&gt;&lt;hr size=&quot;1&quot; style=&quot;border-style:solid;&quot;&gt;&lt;p style=&quot;margin:0px;margin-left:4px;&quot;&gt;&lt;br&gt;&lt;/p&gt;" style="verticalAlign=top;align=left;overflow=fill;html=1;whiteSpace=wrap;" parent="WIyWlLk6GJQsqaUBKTNV-1" vertex="1">
          <mxGeometry x="-1020" y="588" width="160" height="90" as="geometry" />
        </mxCell>
        <mxCell id="bgWBPSLHwiRNU1j04OMt-1" style="edgeStyle=orthogonalEdgeStyle;rounded=0;orthogonalLoop=1;jettySize=auto;html=1;exitX=0.5;exitY=1;exitDx=0;exitDy=0;" parent="WIyWlLk6GJQsqaUBKTNV-1" source="bgWBPSLHwiRNU1j04OMt-0" target="bgWBPSLHwiRNU1j04OMt-0" edge="1">
          <mxGeometry relative="1" as="geometry" />
        </mxCell>
        <mxCell id="bgWBPSLHwiRNU1j04OMt-2" value="&lt;p style=&quot;margin:0px;margin-top:4px;text-align:center;&quot;&gt;&lt;b&gt;Baggege Check-in&lt;/b&gt;&lt;/p&gt;&lt;hr size=&quot;1&quot; style=&quot;border-style:solid;&quot;&gt;&lt;p style=&quot;margin:0px;margin-left:4px;&quot;&gt;+ Id&lt;/p&gt;&lt;p style=&quot;margin:0px;margin-left:4px;&quot;&gt;+ Prohibited Items&lt;/p&gt;&lt;p style=&quot;margin:0px;margin-left:4px;&quot;&gt;+ Weigth&lt;/p&gt;&lt;hr size=&quot;1&quot; style=&quot;border-style:solid;&quot;&gt;&lt;p style=&quot;margin:0px;margin-left:4px;&quot;&gt;&lt;br&gt;&lt;/p&gt;&lt;p style=&quot;margin:0px;margin-left:4px;&quot;&gt;&lt;br&gt;&lt;/p&gt;" style="verticalAlign=top;align=left;overflow=fill;html=1;whiteSpace=wrap;" parent="WIyWlLk6GJQsqaUBKTNV-1" vertex="1">
          <mxGeometry x="-1020" y="750" width="160" height="80" as="geometry" />
        </mxCell>
      </root>
    </mxGraphModel>
  </diagram>
</mxfile>
